<svg viewBox="0 0 120 63" fill="none" xmlns="http://www.w3.org/2000/svg">
<g id="Layer_1_1_">
<path id="Vector" d="M59.2894 17.4534L51.218 13.5768C50.9724 13.5591 50.7092 13.5414 50.446 13.5414C49.3406 13.5237 48.2527 13.7539 47.235 14.1787L59.9737 19.967C59.8509 19.0996 59.6228 18.2677 59.2894 17.4534Z" fill="black"/>
<path id="Vector_2" d="M39.0584 10.2667C39.5146 9.61178 40.041 9.02764 40.6376 8.4966L24.0737 0.531036L23.1262 3.22163L38.9531 10.426C38.9882 10.3729 39.0233 10.3198 39.0584 10.2667Z" fill="black"/>
<path id="Vector_3" d="M102.647 42.8901L102.892 41.8989L12.7212 6.58487L12.5983 6.53177L11.8263 9.54098L102.524 42.837L102.647 42.8901Z" fill="black"/>
<path id="Vector_4" d="M7.38706 57.0334C6.70275 56.5732 5.66751 56.3431 4.29889 56.3431C2.89517 56.3431 2.21086 55.9537 2.21086 55.1925C2.21086 55.0155 2.2635 54.8385 2.38633 54.6969C2.50915 54.5376 2.66707 54.4314 2.84254 54.3428C3.05309 54.2366 3.2812 54.1658 3.5093 54.1304C3.7725 54.0773 4.03569 54.0596 4.29889 54.0596C4.84283 54.0419 5.38677 54.1304 5.91316 54.3074C6.29918 54.4668 6.66766 54.6969 6.96595 54.9801L8.31702 53.6348C7.84327 53.1569 7.28178 52.7851 6.65011 52.5373C5.89561 52.2541 5.10602 52.1125 4.31643 52.0948C3.75495 52.0771 3.19346 52.1479 2.64952 52.3072C2.17577 52.4488 1.73711 52.6612 1.35109 52.9445C1.00016 53.21 0.719418 53.5286 0.508861 53.918C0.31585 54.272 0.210571 54.6792 0.210571 55.104C0.210571 55.5111 0.280757 55.9006 0.438675 56.29C0.596593 56.6794 0.859789 57.0157 1.19317 57.2636C1.59674 57.5645 2.07049 57.7946 2.56179 57.9185C3.2461 58.0955 3.94796 58.1663 4.64982 58.1486C4.94811 58.1486 5.2464 58.1663 5.52714 58.2371C5.72015 58.2725 5.89561 58.361 6.05353 58.4672C6.17636 58.5557 6.26409 58.6974 6.31673 58.839C6.36937 58.9983 6.38691 59.1576 6.38691 59.3346C6.38691 59.5116 6.33427 59.6886 6.21145 59.8302C6.08862 59.9718 5.93071 60.0958 5.75524 60.1843C5.54468 60.2905 5.31658 60.3613 5.08848 60.3967C4.82528 60.4498 4.56208 60.4675 4.29889 60.4675C3.75495 60.4852 3.21101 60.3967 2.68462 60.2197C2.2986 60.0781 1.93012 59.8479 1.63183 59.547L0.280757 60.8923C0.75451 61.3702 1.316 61.742 1.94767 61.9898C2.70216 62.273 3.49175 62.4146 4.28134 62.4323C4.84283 62.45 5.40431 62.3792 5.94825 62.2022C6.42201 62.0429 6.86067 61.8128 7.24669 61.5119C7.59762 61.2286 7.87836 60.8923 8.08892 60.4852C8.28193 60.1135 8.38721 59.7063 8.38721 59.2815C8.40475 58.2194 8.07137 57.476 7.38706 57.0334Z" fill="black"/>
<path id="Vector_5" d="M111.665 43.492L111.929 42.7485L86.5741 30.5701C86.8548 31.1542 87.0654 31.7561 87.2409 32.3756L111.665 43.492Z" fill="black"/>
<path id="Vector_6" d="M77.0639 27.7379C76.6954 27.3307 76.3094 26.9413 75.9409 26.5342L75.5022 26.0739C75.0285 25.5606 74.5372 25.0473 74.0634 24.5339L66.8869 21.0822C66.922 21.7548 66.9045 22.4275 66.8694 23.0824L77.0639 27.7379Z" fill="black"/>
<path id="Vector_7" d="M86.6969 34.5174C86.3635 30.4461 83.4508 27.2776 80.8364 24.4454L80.1345 23.6843C77.9588 21.3654 75.2566 18.4624 75.2742 15.9842C75.3093 14.2495 76.3796 12.9219 78.5729 11.9483C79.0642 11.7359 79.5906 11.5589 80.0994 11.4173C80.2047 11.3819 80.1872 11.3465 80.1521 11.2226C80.1345 11.1164 80.0994 11.0456 80.0117 11.0456H79.9591C79.8713 11.0456 71.3262 10.7978 71.3087 17.0994C71.2911 20.2502 73.7827 22.8877 76.2041 25.4367L76.6428 25.8969C78.5905 27.9503 80.5732 30.0744 81.4154 32.4641L86.6969 34.5174Z" fill="black"/>
<path id="Vector_8" d="M51.5163 12.6387C53.2358 12.8334 55.7274 13.6831 57.5873 15.4886L57.9558 15.17C55.6397 12.0545 51.9725 10.6207 49.323 10.3198L49.0773 10.3021C46.3225 10.0366 42.4272 10.7447 40.5147 13.5769C40.0234 14.3203 39.6724 15.17 39.5145 16.055L44.0941 17.8429C44.0591 16.6392 44.3047 15.6302 44.8486 14.8513C46.2173 12.9573 49.1651 12.3732 51.5163 12.6387Z" fill="black"/>
<path id="Vector_9" d="M103.12 12.5856C101.366 12.3909 99.9444 12.5325 98.4179 12.6741C97.6634 12.7449 96.9089 12.8334 96.0667 12.8688C94.9437 12.9219 93.8207 12.8865 92.6978 12.7626C90.3114 12.4971 88.8902 11.8776 88.7849 12.0723C88.8726 12.1254 91.0484 13.7008 94.9437 13.9486C95.6631 14.0017 96.5229 14.0194 97.4529 14.0371C99.6462 14.0725 102.278 14.1079 104.208 14.6212C106.84 15.3116 109.595 16.9047 109.806 18.905C110.069 21.2238 108.525 22.162 108.507 22.162L108.595 22.3921C108.63 22.3921 112.315 21.8434 112.174 18.8695C112.051 16.1613 109.56 14.0017 105.366 12.9573C104.612 12.8157 103.875 12.6741 103.12 12.5856Z" fill="black"/>
<path id="Vector_10" d="M38.2688 14.5504L38.7601 14.7451C38.9531 14.0902 39.2514 13.4706 39.6374 12.8865C41.7781 9.71798 46.0419 8.93913 49.2529 9.24005C52.1129 9.55867 56.3416 11.2049 58.8683 14.7274C60.7809 17.4003 61.4476 20.6574 60.8861 24.41L65.4658 26.1978C66.8344 20.1086 65.1148 15.878 63.3777 13.3644C60.272 8.85062 55.2186 6.79728 51.5339 6.39015C47.6912 5.94762 42.6028 6.88578 39.848 10.8155C39.0584 11.9306 38.532 13.2051 38.2688 14.5504Z" fill="black"/>
<path id="Vector_11" d="M72.7826 4.05358C73.1159 4.10668 73.4669 4.12438 73.8003 4.08898C71.1332 4.85014 68.6943 6.28394 66.7115 8.23108C70.0453 7.34601 73.7476 7.169 75.59 6.90348C71.7473 8.532 68.4486 12.3732 68.5363 12.5856C68.5714 12.5679 72.3088 11.0102 74.3968 10.4791C76.2041 10.0366 78.064 9.89499 79.9064 10.0366C81.4856 10.1782 83.0648 10.4437 84.6089 10.8155V10.9748C83.7842 11.0987 82.9595 11.2934 82.1524 11.5412L81.8892 11.6474C80.5556 12.1785 76.9762 13.5769 77.6078 16.6392C78.1693 19.3121 82.8718 23.2063 83.0648 23.3656L83.2227 23.224C82.7665 22.4275 82.3629 21.5955 82.0295 20.7282C81.6435 19.7546 81.468 19.1882 81.3277 19.0288L85.1879 20.498C85.2756 20.5688 85.3984 20.622 85.5037 20.6397H85.5388C85.5037 20.622 81.7312 18.1969 81.8541 15.2762C81.9243 13.9132 82.7489 13.1166 84.2755 12.9927C85.7494 12.9042 87.0303 13.9486 87.2759 15.4178C87.311 15.878 87.2935 16.356 87.1882 16.8162C87.118 17.1348 87.1355 17.4534 87.2408 17.7544C88.7849 16.8162 89.557 16.4622 92.1889 15.878C91.8555 16.7631 91.5748 17.6835 91.3642 18.6217C92.7329 18.3385 96.014 16.7277 96.1193 16.4622C95.9789 17.4888 96.1544 18.5509 96.6457 19.4714C98.0319 16.356 99.4531 15.4178 99.4005 15.2054C99.3654 15.2054 95.7333 15.3116 92.996 14.8867C90.2237 14.4619 87.2408 13.1697 87.2408 11.3288C87.2408 9.70028 89.9781 8.72671 93.7856 9.13384C95.4175 9.31085 97.5055 9.80649 99.5233 10.2667C102.418 10.9217 105.454 11.5766 106.963 11.435C110.385 11.0987 110.262 6.90348 110.121 6.72647L106.612 7.45222C106.595 7.45222 106.559 7.45222 106.524 7.46992C106.559 7.34601 106.577 7.2221 106.595 7.0982C106.577 5.87681 105.682 4.85014 104.489 4.69082C103.331 4.56692 102.383 5.41658 102.383 6.62026C102.401 6.97429 102.489 7.32831 102.647 7.64693C102.331 7.64693 101.997 7.66464 101.682 7.66464C99.1548 7.64693 95.7333 7.23981 91.645 6.47865C89.6973 6.12463 87.311 5.38117 85.0124 4.67312C82.6437 3.94737 80.3802 3.25702 78.9238 3.27472L80.889 1.84092C79.8011 1.5046 78.6782 1.27448 77.5376 1.16828C76.8709 1.09747 76.1339 1.04437 75.3093 1.02667C70.5366 0.95586 65.2727 3.78806 65.3078 4.03588C65.3955 4.01818 69.5365 3.68185 72.7826 4.05358ZM104.506 5.96532C104.963 6.03612 105.314 6.42555 105.331 6.88578C105.331 7.29291 105.015 7.61153 104.612 7.62923C104.594 7.62923 104.559 7.62923 104.542 7.62923H104.489C104.033 7.55843 103.699 7.169 103.699 6.72647C103.682 6.31934 103.998 5.98302 104.401 5.96532C104.436 5.96532 104.471 5.96532 104.506 5.96532ZM82.1348 5.94761C82.4331 5.66439 82.8542 5.54049 83.2578 5.59359L83.2753 5.46968V5.59359C84.1702 5.7352 84.837 6.49635 84.8545 7.39912C84.8896 8.19567 84.2755 8.85062 83.5034 8.88602C83.4157 8.88602 83.3455 8.88602 83.2578 8.86832C82.3629 8.72671 81.6961 7.96556 81.6611 7.06279C81.6611 6.63796 81.819 6.23083 82.1348 5.94761Z" fill="black"/>
<path id="Vector_12" d="M15.1601 34.4289V34.128C15.125 33.1013 15.476 31.9508 15.8093 30.8179C16.4059 28.8353 17.02 26.782 15.4233 25.4898C14.2302 24.5339 12.5457 25.0827 11.8438 26.3572C11.6859 24.8526 11.914 23.5427 12.5808 22.4983C14.0547 20.2325 17.0025 19.8785 18.6343 20.0378C19.7397 20.1617 22.5296 20.6928 24.372 22.9054C25.5476 24.3215 26.0038 26.0739 25.7406 28.1273C25.3721 30.9949 26.0214 33.7032 27.5479 35.5264C28.8112 37.0664 30.601 37.9692 32.8645 38.217L33.0575 38.2347C35.9877 38.5179 38.4793 37.5621 39.8655 35.5972C40.7428 34.3581 41.1815 32.7473 41.1288 30.8356L40.6375 30.7648C40.5673 31.88 40.2515 32.8181 39.7251 33.5262C38.7601 34.8361 36.9528 35.4556 34.8121 35.2078C33.1628 35.0308 31.8994 34.4112 31.1098 33.42C30.0921 32.1632 29.7061 30.216 30.0219 28.0565C30.5132 24.6224 29.2674 22.2328 28.1445 20.8167C26.3898 18.6217 23.4947 17.1171 20.4065 16.7631C17.8623 16.4799 14.2126 17.1702 12.265 20.0555C11.4052 21.3123 10.6507 23.4542 11.2999 26.7112C9.66809 25.6845 8.08891 25.8615 7.56251 27.1183C7.01858 28.4459 8.28192 30.5701 9.826 31.8446C11.2824 33.0482 13.0019 33.8979 14.8443 34.3404L15.1601 34.4289Z" fill="black"/>
<path id="Vector_13" d="M117.649 56.2723L112.683 52.378H110.999V62.1314H112.806V55.0509L117.649 58.7505V62.1314H119.456V52.378H117.649V56.2723Z" fill="black"/>
<path id="Vector_14" d="M75.9059 52.378L71.9755 62.1314H74.081L75.0636 59.6886H79.0818L80.1346 62.1314H82.2401L78.0114 52.378H75.9059ZM75.7479 57.8654L76.9411 54.9093L78.222 57.8654H75.7479Z" fill="black"/>
<path id="Vector_15" d="M89.557 56.3431V58.1663H92.5925C92.5048 58.5026 92.3468 58.8036 92.1538 59.0868C91.9608 59.37 91.7152 59.6001 91.452 59.8125C91.1888 60.0249 90.8905 60.1843 90.5746 60.2905C89.8377 60.5383 89.0306 60.5206 88.3112 60.202C87.5391 59.8833 86.9425 59.2638 86.6092 58.4849C86.2758 57.6884 86.2758 56.8033 86.6092 56.0068C86.925 55.2279 87.5391 54.6261 88.3112 54.2897C88.6972 54.1304 89.1183 54.0419 89.5394 54.0419C89.9605 54.0419 90.3816 54.1304 90.7677 54.3074C91.1361 54.4668 91.4871 54.6969 91.7853 54.9801L93.1189 53.6348C92.6627 53.1746 92.1187 52.8028 91.5046 52.5373C90.2413 52.0063 88.82 52.0063 87.5567 52.5373C86.346 53.0507 85.3634 54.0419 84.8545 55.2633C84.3281 56.5378 84.3281 57.9716 84.8545 59.2461C85.1177 59.8479 85.4862 60.4144 85.9424 60.8746C86.3986 61.3348 86.9601 61.7066 87.5567 61.9721C88.82 62.5031 90.2413 62.5031 91.5046 61.9721C92.7329 61.4588 93.6979 60.4675 94.2243 59.2461C94.4875 58.6089 94.6279 57.9362 94.6279 57.2459C94.6279 56.9449 94.6103 56.6263 94.5401 56.3254L89.557 56.3431Z" fill="black"/>
<path id="Vector_16" d="M68.5013 56.821C68.7294 56.3962 68.8347 55.9182 68.8347 55.4226C68.8347 55.0155 68.7469 54.6084 68.589 54.2366C68.4311 53.8826 68.203 53.5463 67.9398 53.2631C67.6591 52.9798 67.3432 52.7674 66.9747 52.6081C66.6063 52.4488 66.2027 52.3603 65.7991 52.378H60.3597V62.1314H62.167V58.4672H65.7114L67.2906 62.1314H69.3961L67.5538 57.8831C67.9573 57.5999 68.2732 57.2458 68.5013 56.821ZM66.6589 56.29C66.4308 56.5201 66.115 56.644 65.7991 56.644H62.167V54.2012H65.7991C66.4659 54.2012 67.0098 54.75 67.0098 55.4403C67.0098 55.7589 66.887 56.0599 66.6589 56.29Z" fill="black"/>
<path id="Vector_17" d="M73.309 45.6515C79.0116 46.2888 85.0651 44.0761 86.4337 37.9692L81.7137 36.2345C80.9592 41.4386 75.9059 43.3858 70.9402 42.9078C67.8696 42.5538 63.6585 40.9253 61.1142 37.3496C60.9037 37.0487 60.7107 36.7301 60.5176 36.4115C60.4475 36.2876 60.3071 36.2345 60.1843 36.2876C60.0614 36.3407 60.0263 36.5 60.079 36.6062C60.079 36.6062 60.079 36.6062 60.079 36.6239C60.4124 37.3142 60.7984 37.9692 61.2195 38.5887C64.3779 43.138 69.519 45.2267 73.309 45.6515Z" fill="black"/>
<path id="Vector_18" d="M106.068 53.6348C105.612 53.1746 105.05 52.8028 104.454 52.5373C103.19 52.0063 101.769 52.0063 100.506 52.5373C99.2952 53.0507 98.3126 54.0419 97.8037 55.2633C97.2773 56.5378 97.2773 57.9716 97.8037 59.2461C98.3126 60.4675 99.2952 61.4588 100.506 61.9721C101.769 62.5031 103.19 62.5031 104.454 61.9721C105.665 61.4588 106.647 60.4675 107.156 59.2461C107.682 57.9716 107.682 56.5378 107.156 55.2633C106.893 54.6438 106.524 54.095 106.068 53.6348ZM105.419 58.5026C105.261 58.8921 105.033 59.2284 104.735 59.5293C104.436 59.8302 104.103 60.0604 103.717 60.2197C102.927 60.556 102.05 60.556 101.26 60.2197C100.488 59.901 99.8918 59.2815 99.5584 58.5026C99.225 57.7061 99.225 56.821 99.5584 56.0245C99.8742 55.2456 100.488 54.6438 101.26 54.3074C102.05 53.9711 102.927 53.9711 103.717 54.3074C104.489 54.6261 105.085 55.2456 105.419 56.0245C105.735 56.8033 105.735 57.7061 105.419 58.5026Z" fill="black"/>
<path id="Vector_19" d="M102.476 56.2181L101.446 57.2569L102.476 58.2958L103.506 57.2569L102.476 56.2181Z" fill="black"/>
<path id="Vector_20" d="M93.6979 43.669C93.2417 43.492 92.7855 43.3504 92.3118 43.2796C92.5399 43.2442 93.2066 43.1733 93.4348 43.1556C93.8032 43.1556 94.9788 43.3504 95.0139 43.1379C93.8734 42.6069 92.6452 42.2352 91.3994 42.0759C91.1186 42.0405 90.8379 42.0228 90.5571 42.0228C88.9253 42.0228 87.0128 42.5715 85.3283 43.5451C84.2053 44.2177 83.0999 45.1736 83.1876 45.4037C83.2052 45.4037 85.1879 45.1382 86.8724 45.3152C89.5394 45.6338 92.4171 47.5102 92.4522 47.5279L92.5925 47.3685C92.5925 47.3685 92.0837 46.6605 91.7152 46.2357C91.3467 45.8108 90.4694 45.2975 90.4694 45.2975C91.1888 45.4037 91.8731 45.6338 92.5223 45.9524C93.7857 46.6428 94.856 47.28 94.9788 47.0853C94.9086 46.9968 93.0838 44.8019 92.1188 44.554C92.7855 44.5894 93.4523 44.6957 94.1015 44.8727C94.9262 45.1382 96.3825 45.8462 96.5229 45.6692C96.4527 45.6515 95.1718 44.2531 93.6979 43.669Z" fill="black"/>
<path id="Vector_21" d="M54.1132 39.2083C53.6745 39.0313 53.2007 38.8897 52.727 38.8189C52.9726 38.7835 53.6219 38.7127 53.8675 38.695C54.236 38.695 55.394 38.8897 55.4291 38.6773C54.2886 38.1462 53.0604 37.7745 51.8146 37.6152C51.5338 37.5798 51.2531 37.5621 50.9723 37.5621C49.3405 37.5621 47.428 38.1108 45.7611 39.0844C44.6381 39.757 43.5151 40.7129 43.6028 40.943C43.6204 40.943 45.6031 40.6775 47.2876 40.8545C49.9371 41.1731 52.8323 43.0495 52.8674 43.0672L53.0077 42.9078C53.0077 42.9078 52.4989 42.1998 52.1129 41.775C51.7268 41.3501 50.8846 40.8545 50.8846 40.8545C51.604 40.9607 52.2883 41.1908 52.9375 41.5095C54.2009 42.1998 55.2537 42.837 55.394 42.6423C55.3063 42.5538 53.499 40.3589 52.5515 40.1111C53.2183 40.1465 53.8851 40.2527 54.5167 40.4474C55.3414 40.7129 56.7978 41.4209 56.9381 41.2439C56.8855 41.1731 55.5871 39.7747 54.1132 39.2083Z" fill="black"/>
<path id="Vector_22" d="M70.9402 41.828L71.1508 41.8457C74.2916 42.1467 78.5378 41.2793 80.0995 37.8984L79.6784 37.5797C77.8009 39.8278 73.7652 39.4384 73.309 39.3853C71.0631 39.1375 67.817 37.9161 66.0272 35.3317C65.0271 33.8802 64.606 32.0924 64.7288 30.0036L60.1141 28.3043C59.6754 31.6144 60.2895 34.4643 61.9214 36.7832C64.255 40.0048 68.2381 41.5094 70.9402 41.828Z" fill="black"/>
<path id="Vector_23" d="M27.4426 52.378L23.5122 62.1314H25.6178L26.6004 59.6886H30.6185L31.6713 62.1314H33.7769L29.5482 52.378H27.4426ZM27.3022 57.8654L28.4954 54.9093L29.7763 57.8654H27.3022Z" fill="black"/>
<path id="Vector_24" d="M44.3749 53.2631C44.0941 52.9798 43.7783 52.7674 43.4098 52.6081C43.0414 52.4488 42.6378 52.3603 42.2518 52.378H36.8124V62.1314H38.6197V58.4672H42.2518C42.6553 58.4672 43.0589 58.3787 43.4274 58.2194C43.7783 58.0601 44.1117 57.8477 44.3924 57.5645C44.6732 57.2812 44.8837 56.9626 45.0416 56.5909C45.1996 56.2192 45.2873 55.812 45.2698 55.4049C45.2698 54.9978 45.182 54.5907 45.0241 54.2189C44.8662 53.8649 44.6556 53.5463 44.3749 53.2631ZM43.1115 56.29C42.8834 56.5201 42.5676 56.644 42.2518 56.644H38.6197V54.2012H42.2518C42.9185 54.2012 43.4625 54.75 43.4625 55.4226C43.4449 55.7589 43.3221 56.0599 43.1115 56.29Z" fill="black"/>
<path id="Vector_25" d="M44.8487 37.3673C47.2701 33.9156 47.4631 28.7999 45.4102 22.9054L39.8831 20.8698C40.0936 21.6309 40.3393 22.3921 40.6376 23.1178C42.7958 28.5521 42.866 33.1899 40.8306 36.1991C39.2163 38.571 36.3562 39.7747 32.7943 39.4207C30.1974 39.1198 28.0392 37.9692 26.5478 36.1106L26.1091 36.4823C26.1969 36.6062 26.3899 36.8186 26.3899 36.8186C27.7936 38.6418 30.3729 40.9076 34.7595 41.4032C39.0233 41.8812 42.708 40.412 44.8487 37.3673Z" fill="black"/>
<path id="Vector_26" d="M55.4994 53.7941C55.0607 53.3516 54.5343 52.9975 53.9553 52.7497C53.3587 52.5019 52.727 52.3603 52.0954 52.3603H48.4633V62.1137H52.0954C52.7446 62.1137 53.3763 61.9898 53.9728 61.7243C54.5519 61.4764 55.0783 61.1224 55.5169 60.6799C55.9556 60.2373 56.3065 59.7063 56.5522 59.1399C57.061 57.9185 57.061 56.5555 56.5522 55.3341C56.3065 54.7677 55.9556 54.2366 55.4994 53.7941ZM54.8852 58.4495C54.7273 58.8036 54.5168 59.1399 54.236 59.4231C53.9553 59.7063 53.6395 59.9187 53.271 60.078C52.9025 60.2373 52.4989 60.3259 52.0954 60.3259H50.2705V54.2189H52.0954C52.4989 54.2189 52.9025 54.2897 53.271 54.449C53.9904 54.75 54.5694 55.3341 54.8852 56.0776C55.2011 56.821 55.2011 57.6884 54.8852 58.4495Z" fill="black"/>
<path id="Vector_27" d="M18.687 56.2723L13.7213 52.378H12.0369V62.1314H13.8441V55.0509L18.687 58.7505V62.1314H20.4942V52.378H18.687V56.2723Z" fill="black"/>
</g>
</svg>
